# Blender v3.2.0 OBJ File: 'tunnel.blend'
# www.blender.org
mtllib tunnel.mtl
o Circle.001_Circle.006
v 12.705683 64.686272 -26.062927
v 9.194057 64.686272 -25.717062
v 5.817380 64.686272 -24.692759
v 2.705419 64.686272 -23.029381
v -0.022239 64.686272 -20.790848
v -2.260770 64.686272 -18.063190
v -3.924149 64.686272 -14.951229
v -4.948452 64.686272 -11.574553
v -5.294317 64.686272 -8.062926
v -4.948452 64.686272 -4.551301
v -3.924149 64.686272 -1.174626
v -2.260771 64.686272 1.937336
v -0.022239 64.686272 4.664994
v 2.705420 64.686272 6.903526
v 5.817380 64.686272 8.566904
v 9.194057 64.686272 9.591208
v 12.705685 64.686272 9.937073
v 16.217308 64.686272 9.591208
v 19.593985 64.686272 8.566904
v 22.705948 64.686272 6.903524
v 25.433603 64.686272 4.664995
v 27.672134 64.686272 1.937341
v 29.335514 64.686272 -1.174623
v 30.359818 64.686272 -4.551300
v 30.705683 64.686272 -8.062927
v 30.359818 64.686272 -11.574554
v 29.335512 64.686272 -14.951232
v 27.672138 64.686272 -18.063189
v 25.433607 64.686272 -20.790848
v 22.705948 64.686272 -23.029381
v 19.593985 64.686272 -24.692759
v 16.217308 64.686272 -25.717062
v 12.705683 -1.000496 -26.062927
v 9.194057 -1.000496 -25.717062
v 5.817380 -1.000496 -24.692759
v 2.705419 -1.000496 -23.029381
v -0.022239 -1.000496 -20.790848
v -2.260770 -1.000496 -18.063190
v -3.924149 -1.000496 -14.951229
v -4.948452 -1.000496 -11.574553
v -5.294317 -1.000496 -8.062926
v -4.948452 -1.000496 -4.551301
v -3.924149 -1.000496 -1.174626
v -2.260771 -1.000496 1.937336
v -0.022239 -1.000496 4.664994
v 2.705420 -1.000496 6.903526
v 5.817380 -1.000496 8.566904
v 9.194057 -1.000496 9.591208
v 12.705685 -1.000496 9.937073
v 16.217308 -1.000496 9.591208
v 19.593985 -1.000496 8.566904
v 22.705948 -1.000496 6.903524
v 25.433603 -1.000496 4.664995
v 27.672134 -1.000496 1.937341
v 29.335514 -1.000496 -1.174623
v 30.359818 -1.000496 -4.551300
v 30.705683 -1.000496 -8.062927
v 30.359818 -1.000496 -11.574554
v 29.335512 -1.000496 -14.951232
v 27.672138 -1.000496 -18.063189
v 25.433607 -1.000496 -20.790848
v 22.705948 -1.000496 -23.029381
v 19.593985 -1.000496 -24.692759
v 16.217308 -1.000496 -25.717062
v 12.705682 64.686264 -22.286049
v 9.930888 64.686264 -22.012754
v 7.262729 64.686264 -21.203377
v 4.803740 64.686264 -19.889019
v 2.648417 64.686264 -18.120192
v 0.879589 64.686264 -15.964869
v -0.434769 64.686264 -13.505880
v -1.244145 64.686264 -10.837721
v -1.517439 64.686264 -8.062926
v -1.244145 64.686264 -5.288134
v -0.434769 64.686264 -2.619975
v 0.879588 64.686264 -0.160985
v 2.648417 64.686264 1.994337
v 4.803740 64.686264 3.763166
v 7.262729 64.686264 5.077522
v 9.930889 64.686264 5.886901
v 12.705683 64.686264 6.160193
v 15.480474 64.686264 5.886901
v 18.148634 64.686264 5.077522
v 20.607624 64.686264 3.763165
v 22.762945 64.686264 1.994338
v 24.531773 64.686264 -0.160982
v 25.846130 64.686264 -2.619973
v 26.655508 64.686264 -5.288133
v 26.928802 64.686264 -8.062927
v 26.655508 64.686264 -10.837722
v 25.846130 64.686264 -13.505882
v 24.531776 64.686264 -15.964868
v 22.762947 64.686264 -18.120190
v 20.607624 64.686264 -19.889019
v 18.148634 64.686264 -21.203377
v 15.480474 64.686264 -22.012756
v 12.705682 -1.000504 -22.286049
v 9.930888 -1.000504 -22.012754
v 7.262729 -1.000504 -21.203377
v 4.803740 -1.000504 -19.889019
v 2.648417 -1.000504 -18.120192
v 0.879589 -1.000504 -15.964869
v -0.434769 -1.000504 -13.505880
v -1.244145 -1.000504 -10.837721
v -1.517439 -1.000504 -8.062926
v -1.244145 -1.000504 -5.288134
v -0.434769 -1.000504 -2.619975
v 0.879588 -1.000504 -0.160985
v 2.648417 -1.000504 1.994337
v 4.803740 -1.000504 3.763166
v 7.262729 -1.000504 5.077522
v 9.930889 -1.000504 5.886901
v 12.705683 -1.000504 6.160193
v 15.480474 -1.000504 5.886901
v 18.148634 -1.000504 5.077522
v 20.607624 -1.000504 3.763165
v 22.762945 -1.000504 1.994338
v 24.531773 -1.000504 -0.160982
v 25.846130 -1.000504 -2.619973
v 26.655508 -1.000504 -5.288133
v 26.928802 -1.000504 -8.062927
v 26.655508 -1.000504 -10.837722
v 25.846130 -1.000504 -13.505882
v 24.531776 -1.000504 -15.964868
v 22.762947 -1.000504 -18.120190
v 20.607624 -1.000504 -19.889019
v 18.148634 -1.000504 -21.203377
v 15.480474 -1.000504 -22.012756
vn -0.2903 0.0000 -0.9569
vn -0.4714 0.0000 -0.8819
vn -0.6344 0.0000 -0.7730
vn -0.7730 0.0000 -0.6344
vn -0.8819 0.0000 -0.4714
vn -0.9569 0.0000 -0.2903
vn -0.9952 0.0000 -0.0980
vn -0.9952 0.0000 0.0980
vn -0.9569 0.0000 0.2903
vn -0.8819 0.0000 0.4714
vn -0.7730 0.0000 0.6344
vn -0.6344 0.0000 0.7730
vn -0.4714 0.0000 0.8819
vn -0.2903 0.0000 0.9569
vn -0.0980 0.0000 0.9952
vn 0.0980 0.0000 0.9952
vn 0.2903 0.0000 0.9569
vn 0.4714 0.0000 0.8819
vn 0.6344 0.0000 0.7730
vn 0.7730 0.0000 0.6344
vn 0.8819 0.0000 0.4714
vn 0.9569 0.0000 0.2903
vn 0.9952 0.0000 0.0980
vn 0.9952 0.0000 -0.0980
vn 0.9569 0.0000 -0.2903
vn 0.8819 0.0000 -0.4714
vn 0.7730 0.0000 -0.6344
vn 0.6344 0.0000 -0.7730
vn 0.4714 0.0000 -0.8819
vn 0.2903 0.0000 -0.9569
vn 0.0980 0.0000 -0.9952
vn -0.0980 0.0000 -0.9952
vn 0.0000 1.0000 -0.0000
vn 0.0000 -1.0000 0.0000
usemtl None
s off
f 34//1 35//1 3//1 2//1
f 35//2 36//2 4//2 3//2
f 36//3 37//3 5//3 4//3
f 37//4 38//4 6//4 5//4
f 38//5 39//5 7//5 6//5
f 39//6 40//6 8//6 7//6
f 40//7 41//7 9//7 8//7
f 41//8 42//8 10//8 9//8
f 42//9 43//9 11//9 10//9
f 43//10 44//10 12//10 11//10
f 44//11 45//11 13//11 12//11
f 45//12 46//12 14//12 13//12
f 46//13 47//13 15//13 14//13
f 47//14 48//14 16//14 15//14
f 48//15 49//15 17//15 16//15
f 49//16 50//16 18//16 17//16
f 50//17 51//17 19//17 18//17
f 51//18 52//18 20//18 19//18
f 52//19 53//19 21//19 20//19
f 53//20 54//20 22//20 21//20
f 54//21 55//21 23//21 22//21
f 55//22 56//22 24//22 23//22
f 56//23 57//23 25//23 24//23
f 57//24 58//24 26//24 25//24
f 58//25 59//25 27//25 26//25
f 59//26 60//26 28//26 27//26
f 60//27 61//27 29//27 28//27
f 61//28 62//28 30//28 29//28
f 62//29 63//29 31//29 30//29
f 63//30 64//30 32//30 31//30
f 64//31 33//31 1//31 32//31
f 33//32 34//32 2//32 1//32
f 98//17 66//17 67//17 99//17
f 99//18 67//18 68//18 100//18
f 100//19 68//19 69//19 101//19
f 101//20 69//20 70//20 102//20
f 102//21 70//21 71//21 103//21
f 103//22 71//22 72//22 104//22
f 104//23 72//23 73//23 105//23
f 105//24 73//24 74//24 106//24
f 106//25 74//25 75//25 107//25
f 107//26 75//26 76//26 108//26
f 108//27 76//27 77//27 109//27
f 109//28 77//28 78//28 110//28
f 110//29 78//29 79//29 111//29
f 111//30 79//30 80//30 112//30
f 112//31 80//31 81//31 113//31
f 113//32 81//32 82//32 114//32
f 114//1 82//1 83//1 115//1
f 115//2 83//2 84//2 116//2
f 116//3 84//3 85//3 117//3
f 117//4 85//4 86//4 118//4
f 118//5 86//5 87//5 119//5
f 119//6 87//6 88//6 120//6
f 120//7 88//7 89//7 121//7
f 121//8 89//8 90//8 122//8
f 122//9 90//9 91//9 123//9
f 123//10 91//10 92//10 124//10
f 124//11 92//11 93//11 125//11
f 125//12 93//12 94//12 126//12
f 126//13 94//13 95//13 127//13
f 127//14 95//14 96//14 128//14
f 128//15 96//15 65//15 97//15
f 97//16 65//16 66//16 98//16
f 16//33 17//33 81//33 80//33
f 17//33 18//33 82//33 81//33
f 18//33 19//33 83//33 82//33
f 19//33 20//33 84//33 83//33
f 15//33 16//33 80//33 79//33
f 14//33 15//33 79//33 78//33
f 12//33 13//33 77//33 76//33
f 11//33 12//33 76//33 75//33
f 10//33 11//33 75//33 74//33
f 9//33 10//33 74//33 73//33
f 20//33 21//33 85//33 84//33
f 21//33 22//33 86//33 85//33
f 22//33 23//33 87//33 86//33
f 23//33 24//33 88//33 87//33
f 24//33 25//33 89//33 88//33
f 25//33 26//33 90//33 89//33
f 26//33 27//33 91//33 90//33
f 27//33 28//33 92//33 91//33
f 8//33 9//33 73//33 72//33
f 7//33 8//33 72//33 71//33
f 6//33 7//33 71//33 70//33
f 5//33 6//33 70//33 69//33
f 4//33 5//33 69//33 68//33
f 3//33 4//33 68//33 67//33
f 2//33 3//33 67//33 66//33
f 1//33 2//33 66//33 65//33
f 32//33 1//33 65//33 96//33
f 31//33 32//33 96//33 95//33
f 30//33 31//33 95//33 94//33
f 29//33 30//33 94//33 93//33
f 28//33 29//33 93//33 92//33
f 54//34 118//34 119//34 55//34
f 53//34 117//34 118//34 54//34
f 52//34 116//34 117//34 53//34
f 51//34 115//34 116//34 52//34
f 50//34 114//34 115//34 51//34
f 49//34 113//34 114//34 50//34
f 48//34 112//34 113//34 49//34
f 55//34 119//34 120//34 56//34
f 56//34 120//34 121//34 57//34
f 57//34 121//34 122//34 58//34
f 58//34 122//34 123//34 59//34
f 47//34 111//34 112//34 48//34
f 45//34 109//34 110//34 46//34
f 44//34 108//34 109//34 45//34
f 43//34 107//34 108//34 44//34
f 42//34 106//34 107//34 43//34
f 41//34 105//34 106//34 42//34
f 40//34 104//34 105//34 41//34
f 39//34 103//34 104//34 40//34
f 38//34 102//34 103//34 39//34
f 37//34 101//34 102//34 38//34
f 36//34 100//34 101//34 37//34
f 35//34 99//34 100//34 36//34
f 34//34 98//34 99//34 35//34
f 33//34 97//34 98//34 34//34
f 64//34 128//34 97//34 33//34
f 63//34 127//34 128//34 64//34
f 62//34 126//34 127//34 63//34
f 61//34 125//34 126//34 62//34
f 60//34 124//34 125//34 61//34
f 59//34 123//34 124//34 60//34
f 13//33 14//33 78//33 77//33
f 46//34 110//34 111//34 47//34
